<svg id="visual" viewBox="0 0 540 960" width="540" height="960" xmlns="http://www.w3.org/2000/svg" xmlns:xlink="http://www.w3.org/1999/xlink" version="1.1"><path d="M0 231L45 272.7C90 314.3 180 397.7 270 399.3C360 401 450 321 495 281L540 241L540 0L495 0C450 0 360 0 270 0C180 0 90 0 45 0L0 0Z" fill="#a889db"></path><path d="M0 644L45 661.7C90 679.3 180 714.7 270 727.5C360 740.3 450 730.7 495 725.8L540 721L540 239L495 279C450 319 360 399 270 397.3C180 395.7 90 312.3 45 270.7L0 229Z" fill="#8156c8"></path><path d="M0 961L45 961C90 961 180 961 270 961C360 961 450 961 495 961L540 961L540 719L495 723.8C450 728.7 360 738.3 270 725.5C180 712.7 90 677.3 45 659.7L0 642Z" fill="#5e3e94"></path></svg>