<svg 
    id="visual" 
    viewBox="0 0 540 960" 
    width="100%"
    preserveAspectRatio="none"
    xmlns="http://www.w3.org/2000/svg" 
    xmlns:xlink="http://www.w3.org/1999/xlink" 
    version="1.1"
>
    <rect   
        x="0" 
        y="0" 
        width="540" 
        height="960" 
        fill="#2F3241"
    ></rect>
    <path 
        d="M0 712L12.8 706.7C25.7 701.3 51.3 690.7 77 673.3C102.7 656 128.3 632 154 618.3C179.7 604.7 205.3 601.3 231.2 610.8C257 620.3 283 642.7 308.8 654.2C334.7 665.7 360.3 666.3 386 662.7C411.7 659 437.3 651 463 655.2C488.7 659.3 514.3 675.7 527.2 683.8L540 692L540 961L527.2 961C514.3 961 488.7 961 463 961C437.3 961 411.7 961 386 961C360.3 961 334.7 961 308.8 961C283 961 257 961 231.2 961C205.3 961 179.7 961 154 961C128.3 961 102.7 961 77 961C51.3 961 25.7 961 12.8 961L0 961Z" 
        fill="#8156c8"></path>
    <path 
        d="M0 680L12.8 675C25.7 670 51.3 660 77 667.3C102.7 674.7 128.3 699.3 154 713.8C179.7 728.3 205.3 732.7 231.2 723.3C257 714 283 691 308.8 690.8C334.7 690.7 360.3 713.3 386 711.2C411.7 709 437.3 682 463 672.3C488.7 662.7 514.3 670.3 527.2 674.2L540 678L540 961L527.2 961C514.3 961 488.7 961 463 961C437.3 961 411.7 961 386 961C360.3 961 334.7 961 308.8 961C283 961 257 961 231.2 961C205.3 961 179.7 961 154 961C128.3 961 102.7 961 77 961C51.3 961 25.7 961 12.8 961L0 961Z" 
        fill="#794ec0"></path>
    <path 
        d="M0 787L12.8 775.3C25.7 763.7 51.3 740.3 77 733.5C102.7 726.7 128.3 736.3 154 735.7C179.7 735 205.3 724 231.2 716.3C257 708.7 283 704.3 308.8 707.3C334.7 710.3 360.3 720.7 386 737C411.7 753.3 437.3 775.7 463 780.3C488.7 785 514.3 772 527.2 765.5L540 759L540 961L527.2 961C514.3 961 488.7 961 463 961C437.3 961 411.7 961 386 961C360.3 961 334.7 961 308.8 961C283 961 257 961 231.2 961C205.3 961 179.7 961 154 961C128.3 961 102.7 961 77 961C51.3 961 25.7 961 12.8 961L0 961Z" 
        fill="#7246b8"></path>
    <path 
        d="M0 835L12.8 839.7C25.7 844.3 51.3 853.7 77 842.8C102.7 832 128.3 801 154 791.2C179.7 781.3 205.3 792.7 231.2 793.8C257 795 283 786 308.8 785C334.7 784 360.3 791 386 803.8C411.7 816.7 437.3 835.3 463 836.7C488.7 838 514.3 822 527.2 814L540 806L540 961L527.2 961C514.3 961 488.7 961 463 961C437.3 961 411.7 961 386 961C360.3 961 334.7 961 308.8 961C283 961 257 961 231.2 961C205.3 961 179.7 961 154 961C128.3 961 102.7 961 77 961C51.3 961 25.7 961 12.8 961L0 961Z" 
        fill="#6b3eb0"></path>
    <path 
        d="M0 881L12.8 880.8C25.7 880.7 51.3 880.3 77 880.7C102.7 881 128.3 882 154 887.5C179.7 893 205.3 903 231.2 905.2C257 907.3 283 901.7 308.8 897.7C334.7 893.7 360.3 891.3 386 889.2C411.7 887 437.3 885 463 882.3C488.7 879.7 514.3 876.3 527.2 874.7L540 873L540 961L527.2 961C514.3 961 488.7 961 463 961C437.3 961 411.7 961 386 961C360.3 961 334.7 961 308.8 961C283 961 257 961 231.2 961C205.3 961 179.7 961 154 961C128.3 961 102.7 961 77 961C51.3 961 25.7 961 12.8 961L0 961Z" 
        fill="#6337a9"></path>
</svg>