<svg data-v-fde0c5aa="" xmlns="http://www.w3.org/2000/svg" viewBox="0 0 300 300" class="iconLeft"><!----><defs data-v-fde0c5aa=""><!----></defs><rect data-v-fde0c5aa="" fill="#F3E9F1" x="0" y="0" width="300px" height="300px" class="logo-background-square"></rect><defs data-v-fde0c5aa=""><!----></defs><g data-v-fde0c5aa="" id="532ba597-c411-4d9f-88a7-85e578ae2c23" fill="#261624" transform="matrix(3.0530980050473118,0,0,3.0530980050473118,118.73315754843998,120.07964115194999)"><path d="M-0.53 11.76C-0.53 12.60-0.10 13.59 1.22 13.59C2.02 13.59 2.72 13.23 3.01 12.43C3.85 12.31 4.62 11.79 4.97 10.77L4.84 10.63C4.30 11.68 3.72 12.10 3.08 12.21C3.14 12.00 3.16 11.77 3.16 11.52C3.16 10.23 2.44 9.07 2.44 8.15C2.44 7.83 2.52 7.63 2.52 7.53C2.52 7.43 2.45 7.35 2.30 7.35C2.03 7.35 1.75 7.62 1.75 8.30L1.75 8.47C1.40 9.21 0.92 9.88 0.36 10.50C0.21 10.67-0.53 10.65-0.53 11.76ZM2.25 11.54C2.25 11.82 2.23 12.01 2.20 12.19C1.34 12.01 0.74 11.42 0.46 10.82C0.88 10.40 1.39 9.72 1.82 9.00C1.96 9.77 2.25 10.65 2.25 11.54ZM1.25 13.10C0.52 13.10 0.10 12.42 0.10 11.75C0.10 11.45 0.18 11.27 0.41 11.26C0.70 11.73 1.34 12.26 2.13 12.42C1.92 13.03 1.47 13.10 1.25 13.10ZM10.53 10.64C10.16 11.41 9.81 11.70 9.42 11.70C8.93 11.70 8.44 11.26 8.44 10.54C8.44 9.80 8.99 9.13 8.99 8.78C8.99 8.61 8.86 8.23 8.51 8.23C8.47 8.23 8.44 8.23 8.41 8.25C8.33 8.08 8.16 7.95 7.81 7.95C6.15 7.95 4.42 10.63 4.42 12.11C4.42 12.82 4.83 13.33 5.54 13.33C6.52 13.33 7.41 12.38 7.99 11.00C8.27 11.65 8.79 11.98 9.31 11.98C9.77 11.98 10.30 11.72 10.71 10.78ZM5.85 12.73C5.52 12.73 5.32 12.45 5.32 12.01C5.32 10.95 6.45 8.50 8.04 8.50C7.88 8.74 7.77 9.14 7.77 9.77C7.77 10.09 7.80 10.35 7.85 10.57C7.35 11.77 6.48 12.73 5.85 12.73ZM13.26 8.15C11.83 8.15 10.19 10.00 10.19 11.87C10.19 13.08 10.86 13.66 11.76 13.66C13.12 13.66 14.59 12.43 15.23 10.74L15.05 10.60C14.45 12.15 13.19 13.13 12.08 13.13C11.28 13.13 11.06 12.54 11.06 11.97C11.06 10.60 12.36 8.54 13.36 8.54C13.59 8.54 13.66 8.67 13.66 8.89C13.66 9.31 13.43 9.86 13.15 10.00C13.27 10.15 13.41 10.21 13.55 10.21C13.99 10.21 14.25 9.73 14.25 9.18C14.25 8.69 14.03 8.15 13.26 8.15ZM16.74 8.13C15.79 8.13 14.73 11.00 14.73 12.07C14.73 12.73 15.08 13.24 15.81 13.24C16.90 13.24 18.02 12.36 18.56 10.75L18.44 10.61C17.64 12.21 16.91 12.75 16.28 12.75C15.82 12.75 15.60 12.59 15.60 11.91C15.60 10.60 17.05 8.90 17.05 8.44C17.05 8.25 16.91 8.13 16.74 8.13ZM17.49 6.83C17.93 6.83 18.40 6.43 18.40 6.08C18.40 5.75 18.21 5.64 17.93 5.64C17.49 5.64 16.91 5.98 16.91 6.37C16.91 6.69 17.18 6.83 17.49 6.83ZM22.11 9.91C21.42 10.92 20.03 12.96 19.17 12.96C18.91 12.96 18.79 12.80 18.79 12.42C18.79 11.06 20.36 8.46 21.67 8.46C22.18 8.46 22.36 8.82 22.36 9.24C22.36 9.39 22.33 9.58 22.29 9.73C22.69 9.73 22.97 9.59 22.97 9.13C22.97 8.50 22.43 8.08 21.70 8.08C19.88 8.08 17.82 10.71 17.82 12.38C17.82 13.16 18.27 13.54 18.86 13.54C19.54 13.54 20.16 12.99 20.97 11.91C20.94 12.07 20.93 12.21 20.93 12.32C20.93 12.81 21.25 13.30 21.94 13.30C22.93 13.30 24.12 12.26 24.71 10.75L24.57 10.61C23.73 12.10 22.83 12.82 22.33 12.82C21.99 12.82 21.85 12.49 21.85 12.21C21.85 11.54 22.67 10.58 22.67 10.26C22.67 10.05 22.27 9.94 22.11 9.91ZM29.16 3.84C29.16 3.44 28.99 2.80 28.70 2.80C27.75 2.80 24.35 9.17 24.35 11.86C24.35 12.68 24.67 13.30 25.47 13.30C26.47 13.30 27.36 12.32 28.10 10.72L27.89 10.61C27.40 11.70 26.61 12.85 25.87 12.85C25.47 12.85 25.26 12.50 25.26 11.77C25.26 11.35 25.33 10.86 25.44 10.36C27.48 8.67 29.16 5.08 29.16 3.84ZM28.63 3.93C28.67 3.93 28.73 3.98 28.73 4.16C28.73 5.10 27.19 8.25 25.56 9.88C26.33 7.18 28.25 3.93 28.63 3.93ZM28.52 8.92C28.87 8.92 29.34 8.93 30.03 8.99C28.84 10.85 27.90 12.60 27.90 13.37C27.90 13.55 27.96 13.86 28.38 14.10C29.08 12.45 29.93 10.68 30.81 9.06C31.39 9.13 32.06 9.21 32.89 9.34C32.73 10.11 32.65 10.82 32.65 11.42C32.65 12.56 32.97 13.30 33.74 13.30C34.66 13.30 35.60 12.25 36.16 10.75L36.02 10.61C35.29 12.03 34.68 12.68 34.19 12.68C33.81 12.68 33.67 12.28 33.67 11.56C33.67 9.11 35.29 3.70 35.85 3.25C35.57 2.97 35.31 2.80 35.11 2.80C34.93 2.80 34.72 2.93 34.44 3.19C33.57 4.00 31.92 6.15 30.49 8.29C30.13 8.23 29.79 8.19 29.48 8.19C28.77 8.19 28.22 8.39 28.03 8.92ZM34.66 3.68C34.09 4.97 33.39 7.00 32.98 8.85C32.45 8.72 31.81 8.55 31.18 8.41C32.48 6.09 33.80 4.21 34.66 3.68ZM37.48 13.24C39.41 13.24 40.78 11.19 40.78 9.73C40.78 8.78 40.19 8.13 39.37 8.13C38.28 8.13 37.42 9.27 36.95 10.19C37.14 9.28 37.27 8.57 37.27 8.30C37.27 7.98 37.07 7.66 36.60 7.66C36.37 7.66 36.34 7.73 36.33 7.90C35.66 13.51 35.08 13.96 34.43 16.27C34.41 16.32 34.62 16.80 34.86 16.80C34.92 16.80 34.99 16.77 35.03 16.73C35.35 16.42 36.09 13.83 36.75 11.03C37.10 10.22 38.09 8.78 39.07 8.78C39.63 8.78 39.87 9.27 39.87 9.86C39.87 11.28 38.51 12.92 37.02 12.92C36.82 12.92 36.67 12.92 36.67 12.99C36.67 13.10 36.99 13.24 37.48 13.24ZM42.97 13.24C44.90 13.24 46.27 11.19 46.27 9.73C46.27 8.78 45.68 8.13 44.86 8.13C43.76 8.13 42.91 9.27 42.43 10.19C42.63 9.28 42.76 8.57 42.76 8.30C42.76 7.98 42.56 7.66 42.08 7.66C41.86 7.66 41.83 7.73 41.82 7.90C41.15 13.51 40.57 13.96 39.91 16.27C39.90 16.32 40.11 16.80 40.35 16.80C40.40 16.80 40.47 16.77 40.52 16.73C40.84 16.42 41.58 13.83 42.24 11.03C42.59 10.22 43.58 8.78 44.56 8.78C45.12 8.78 45.36 9.27 45.36 9.86C45.36 11.28 44.00 12.92 42.50 12.92C42.31 12.92 42.15 12.92 42.15 12.99C42.15 13.10 42.48 13.24 42.97 13.24Z"></path></g><defs data-v-fde0c5aa=""><linearGradient data-v-fde0c5aa="" gradientTransform="rotate(25)" id="4a0f38fb-0b17-4c41-85a7-ccdf9e9cffc5" x1="0%" y1="0%" x2="100%" y2="0%"><stop data-v-fde0c5aa="" offset="0%" stop-color="#E98C00" stop-opacity="1"></stop><stop data-v-fde0c5aa="" offset="100%" stop-color="#8F5BFE" stop-opacity="1"></stop></linearGradient></defs><g data-v-fde0c5aa="" id="986e89cb-45f2-4793-aa90-8ce3cb8d7a24" stroke="none" fill="url(#4a0f38fb-0b17-4c41-85a7-ccdf9e9cffc5)" transform="matrix(0.7123835678120308,0,0,0.7123835678120308,36.438223132686595,114.38091128781086)"><path d="M5.316 94.538l3.806-25.693C1.46 52.219 4.479 31.881 18.18 18.18 35.754.606 64.246.606 81.82 18.18s17.574 46.066 0 63.64c-13.884 13.884-34.583 16.799-51.328 8.745L5.316 94.538zm18.483-44.854a5.774 5.774 0 1011.548 0 5.774 5.774 0 00-11.548 0zm20.562 0a5.774 5.774 0 1011.548 0 5.774 5.774 0 00-11.548 0zm20.562 0a5.774 5.774 0 1011.548 0 5.774 5.774 0 00-11.548 0z"></path></g><!----></svg>