<svg id="visual" viewBox="0 0 540 960" width="540" height="960" xmlns="http://www.w3.org/2000/svg" xmlns:xlink="http://www.w3.org/1999/xlink" version="1.1"><g stroke-width="1" stroke-linejoin="bevel"><path d="M267.4 495.1L221.4 501.9L207.3 600.8Z" fill="#402876" stroke="#402876"></path><path d="M221.4 501.9L190.4 537.8L207.3 600.8Z" fill="#332561" stroke="#332561"></path><path d="M207.3 600.8L333.7 538.8L267.4 495.1Z" fill="#402876" stroke="#402876"></path><path d="M207.3 600.8L309.6 630.8L333.7 538.8Z" fill="#4f298b" stroke="#4f298b"></path><path d="M180.4 381.2L187.3 488.1L221.4 501.9Z" fill="#2f245a" stroke="#2f245a"></path><path d="M221.4 501.9L187.3 488.1L190.4 537.8Z" fill="#2f245a" stroke="#2f245a"></path><path d="M333.7 538.8L325.6 485.9L267.4 495.1Z" fill="#262045" stroke="#262045"></path><path d="M267.4 495.1L180.4 381.2L221.4 501.9Z" fill="#402876" stroke="#402876"></path><path d="M207.3 600.8L263.4 669.6L309.6 630.8Z" fill="#4f298b" stroke="#4f298b"></path><path d="M355.6 485.1L348.7 485.9L333.7 538.8Z" fill="#45287d" stroke="#45287d"></path><path d="M333.7 538.8L348.7 485.9L325.6 485.9Z" fill="#332561" stroke="#332561"></path><path d="M485.9 544.9L355.6 485.1L333.7 538.8Z" fill="#3b276f" stroke="#3b276f"></path><path d="M348.7 485.9L346.7 457.1L325.6 485.9Z" fill="#402876" stroke="#402876"></path><path d="M325.6 485.9L346.7 457.1L267.4 495.1Z" fill="#2c2353" stroke="#2c2353"></path><path d="M129.1 635.8L189.3 665.6L207.3 600.8Z" fill="#2c2353" stroke="#2c2353"></path><path d="M207.3 600.8L189.3 665.6L263.4 669.6Z" fill="#45287d" stroke="#45287d"></path><path d="M129.1 635.8L207.3 600.8L190.4 537.8Z" fill="#4a2984" stroke="#4a2984"></path><path d="M263.4 669.6L332.6 658.6L309.6 630.8Z" fill="#4a2984" stroke="#4a2984"></path><path d="M309.6 630.8L332.6 658.6L333.7 538.8Z" fill="#29214c" stroke="#29214c"></path><path d="M355.6 485.1L346.7 457.1L348.7 485.9Z" fill="#4a2984" stroke="#4a2984"></path><path d="M187.3 488.1L118.3 524.9L190.4 537.8Z" fill="#262045" stroke="#262045"></path><path d="M189.3 665.6L206.4 689.5L263.4 669.6Z" fill="#29214c" stroke="#29214c"></path><path d="M263.4 669.6L289.6 736.5L332.6 658.6Z" fill="#2f245a" stroke="#2f245a"></path><path d="M118.3 524.9L129.1 635.8L190.4 537.8Z" fill="#29214c" stroke="#29214c"></path><path d="M189.3 665.6L194.3 728.5L206.4 689.5Z" fill="#332561" stroke="#332561"></path><path d="M99.1 748.5L194.3 728.5L189.3 665.6Z" fill="#402876" stroke="#402876"></path><path d="M206.4 689.5L289.6 736.5L263.4 669.6Z" fill="#29214c" stroke="#29214c"></path><path d="M194.3 728.5L289.6 736.5L206.4 689.5Z" fill="#4a2984" stroke="#4a2984"></path><path d="M354.6 363.2L180.4 381.2L267.4 495.1Z" fill="#3b276f" stroke="#3b276f"></path><path d="M187.3 488.1L103.1 417.1L118.3 524.9Z" fill="#29214c" stroke="#29214c"></path><path d="M103.1 417.1L61.1 540.9L118.3 524.9Z" fill="#402876" stroke="#402876"></path><path d="M118.3 524.9L61.1 540.9L129.1 635.8Z" fill="#372668" stroke="#372668"></path><path d="M129.1 635.8L99.1 748.5L189.3 665.6Z" fill="#332561" stroke="#332561"></path><path d="M177.3 335.4L170.3 370.2L180.4 381.2Z" fill="#45287d" stroke="#45287d"></path><path d="M180.4 381.2L103.1 417.1L187.3 488.1Z" fill="#4f298b" stroke="#4f298b"></path><path d="M61.1 540.9L63.1 633.6L129.1 635.8Z" fill="#4f298b" stroke="#4f298b"></path><path d="M170.3 370.2L103.1 417.1L180.4 381.2Z" fill="#29214c" stroke="#29214c"></path><path d="M414.7 382.2L354.6 363.2L346.7 457.1Z" fill="#4f298b" stroke="#4f298b"></path><path d="M346.7 457.1L354.6 363.2L267.4 495.1Z" fill="#332561" stroke="#332561"></path><path d="M484.9 638.6L333.7 538.8L332.6 658.6Z" fill="#332561" stroke="#332561"></path><path d="M484.9 638.6L485.9 544.9L333.7 538.8Z" fill="#29214c" stroke="#29214c"></path><path d="M355.6 485.1L414.7 382.2L346.7 457.1Z" fill="#29214c" stroke="#29214c"></path><path d="M254.6 299.4L177.3 335.4L180.4 381.2Z" fill="#3b276f" stroke="#3b276f"></path><path d="M170.3 370.2L57.1 369.2L103.1 417.1Z" fill="#45287d" stroke="#45287d"></path><path d="M434.7 717.6L450.9 685.5L332.6 658.6Z" fill="#372668" stroke="#372668"></path><path d="M508.9 480.1L414.7 382.2L355.6 485.1Z" fill="#402876" stroke="#402876"></path><path d="M357.6 815.3L399.7 747.5L289.6 736.5Z" fill="#2f245a" stroke="#2f245a"></path><path d="M289.6 736.5L399.7 747.5L332.6 658.6Z" fill="#29214c" stroke="#29214c"></path><path d="M399.7 747.5L434.7 717.6L332.6 658.6Z" fill="#29214c" stroke="#29214c"></path><path d="M540 622.8L484.9 638.6L540 670.6Z" fill="#332561" stroke="#332561"></path><path d="M450.9 685.5L484.9 638.6L332.6 658.6Z" fill="#29214c" stroke="#29214c"></path><path d="M63.1 633.6L99.1 748.5L129.1 635.8Z" fill="#2c2353" stroke="#2c2353"></path><path d="M194.3 728.5L232.4 822.3L289.6 736.5Z" fill="#45287d" stroke="#45287d"></path><path d="M0 537.8L0 544.9L61.1 540.9Z" fill="#262045" stroke="#262045"></path><path d="M61.1 540.9L0 544.9L63.1 633.6Z" fill="#3b276f" stroke="#3b276f"></path><path d="M63.1 633.6L0 697.6L99.1 748.5Z" fill="#332561" stroke="#332561"></path><path d="M0 416.1L0 537.8L61.1 540.9Z" fill="#45287d" stroke="#45287d"></path><path d="M484.9 638.6L508.9 585.8L485.9 544.9Z" fill="#45287d" stroke="#45287d"></path><path d="M485.9 544.9L508.9 480.1L355.6 485.1Z" fill="#29214c" stroke="#29214c"></path><path d="M354.6 363.2L254.6 299.4L180.4 381.2Z" fill="#4a2984" stroke="#4a2984"></path><path d="M250.4 262.5L254.6 299.4L272.4 241.4Z" fill="#262045" stroke="#262045"></path><path d="M118.1 785.3L193.3 811.3L194.3 728.5Z" fill="#4f298b" stroke="#4f298b"></path><path d="M99.1 748.5L118.1 785.3L194.3 728.5Z" fill="#402876" stroke="#402876"></path><path d="M193.3 811.3L232.4 822.3L194.3 728.5Z" fill="#4a2984" stroke="#4a2984"></path><path d="M540 469.9L508.9 480.1L485.9 544.9Z" fill="#29214c" stroke="#29214c"></path><path d="M177.3 335.4L57.1 369.2L170.3 370.2Z" fill="#45287d" stroke="#45287d"></path><path d="M103.1 417.1L0 416.1L61.1 540.9Z" fill="#2c2353" stroke="#2c2353"></path><path d="M25.1 330.4L57.1 369.2L177.3 335.4Z" fill="#3b276f" stroke="#3b276f"></path><path d="M340.7 835.2L357.6 815.3L289.6 736.5Z" fill="#372668" stroke="#372668"></path><path d="M399.7 747.5L462.9 824.3L434.7 717.6Z" fill="#2c2353" stroke="#2c2353"></path><path d="M0 544.9L0 697.6L63.1 633.6Z" fill="#332561" stroke="#332561"></path><path d="M99.1 748.5L0 794.3L118.1 785.3Z" fill="#3b276f" stroke="#3b276f"></path><path d="M57.1 369.2L0 416.1L103.1 417.1Z" fill="#262045" stroke="#262045"></path><path d="M232.4 822.3L340.7 835.2L289.6 736.5Z" fill="#332561" stroke="#332561"></path><path d="M540 670.6L484.9 638.6L450.9 685.5Z" fill="#402876" stroke="#402876"></path><path d="M484.9 638.6L540 622.8L508.9 585.8Z" fill="#2f245a" stroke="#2f245a"></path><path d="M508.9 585.8L540 469.9L485.9 544.9Z" fill="#4f298b" stroke="#4f298b"></path><path d="M540 670.6L450.9 685.5L540 738.5Z" fill="#2f245a" stroke="#2f245a"></path><path d="M450.9 685.5L434.7 717.6L540 738.5Z" fill="#45287d" stroke="#45287d"></path><path d="M329.6 253.5L254.6 299.4L354.6 363.2Z" fill="#3b276f" stroke="#3b276f"></path><path d="M254.6 299.4L250.4 262.5L177.3 335.4Z" fill="#262045" stroke="#262045"></path><path d="M540 406.1L446.9 335.2L414.7 382.2Z" fill="#4a2984" stroke="#4a2984"></path><path d="M414.7 382.2L436.7 313.4L354.6 363.2Z" fill="#2c2353" stroke="#2c2353"></path><path d="M540 622.8L540 469.9L508.9 585.8Z" fill="#402876" stroke="#402876"></path><path d="M508.9 480.1L540 406.1L414.7 382.2Z" fill="#4f298b" stroke="#4f298b"></path><path d="M193.3 811.3L217.4 857.2L232.4 822.3Z" fill="#29214c" stroke="#29214c"></path><path d="M232.4 822.3L279.6 905.2L340.7 835.2Z" fill="#4a2984" stroke="#4a2984"></path><path d="M202.3 924.2L217.4 857.2L89.1 905.2Z" fill="#2f245a" stroke="#2f245a"></path><path d="M495.9 260.4L436.7 313.4L446.9 335.2Z" fill="#4f298b" stroke="#4f298b"></path><path d="M446.9 335.2L436.7 313.4L414.7 382.2Z" fill="#45287d" stroke="#45287d"></path><path d="M431.9 844.2L399.7 747.5L357.6 815.3Z" fill="#2f245a" stroke="#2f245a"></path><path d="M279.6 905.2L369.7 845.3L340.7 835.2Z" fill="#2f245a" stroke="#2f245a"></path><path d="M340.7 835.2L369.7 845.3L357.6 815.3Z" fill="#332561" stroke="#332561"></path><path d="M436.7 313.4L329.6 253.5L354.6 363.2Z" fill="#402876" stroke="#402876"></path><path d="M329.6 253.5L272.4 241.4L254.6 299.4Z" fill="#402876" stroke="#402876"></path><path d="M77.1 204.5L25.1 330.4L177.3 335.4Z" fill="#4a2984" stroke="#4a2984"></path><path d="M182.3 199.7L177.3 335.4L250.4 262.5Z" fill="#372668" stroke="#372668"></path><path d="M57.1 369.2L0 338.2L0 416.1Z" fill="#3b276f" stroke="#3b276f"></path><path d="M540 469.9L540 406.1L508.9 480.1Z" fill="#2c2353" stroke="#2c2353"></path><path d="M0 697.6L0 771.5L99.1 748.5Z" fill="#262045" stroke="#262045"></path><path d="M89.1 905.2L217.4 857.2L193.3 811.3Z" fill="#4a2984" stroke="#4a2984"></path><path d="M0 334.4L0 338.2L25.1 330.4Z" fill="#45287d" stroke="#45287d"></path><path d="M25.1 330.4L0 338.2L57.1 369.2Z" fill="#2f245a" stroke="#2f245a"></path><path d="M0 206.5L0 334.4L25.1 330.4Z" fill="#2c2353" stroke="#2c2353"></path><path d="M415.7 960L431.9 844.2L369.7 845.3Z" fill="#262045" stroke="#262045"></path><path d="M369.7 845.3L431.9 844.2L357.6 815.3Z" fill="#2c2353" stroke="#2c2353"></path><path d="M540 770.3L540 738.5L434.7 717.6Z" fill="#4a2984" stroke="#4a2984"></path><path d="M431.9 844.2L462.9 824.3L399.7 747.5Z" fill="#29214c" stroke="#29214c"></path><path d="M0 771.5L0 794.3L99.1 748.5Z" fill="#332561" stroke="#332561"></path><path d="M202.3 924.2L279.6 905.2L217.4 857.2Z" fill="#262045" stroke="#262045"></path><path d="M217.4 857.2L279.6 905.2L232.4 822.3Z" fill="#45287d" stroke="#45287d"></path><path d="M540 406.1L540 356.2L446.9 335.2Z" fill="#29214c" stroke="#29214c"></path><path d="M423.7 199.7L344.7 185.5L329.6 253.5Z" fill="#2f245a" stroke="#2f245a"></path><path d="M462.9 824.3L540 770.3L434.7 717.6Z" fill="#3b276f" stroke="#3b276f"></path><path d="M344.7 185.5L236.4 195.7L272.4 241.4Z" fill="#402876" stroke="#402876"></path><path d="M272.4 241.4L236.4 195.7L250.4 262.5Z" fill="#262045" stroke="#262045"></path><path d="M344.7 185.5L272.4 241.4L329.6 253.5Z" fill="#332561" stroke="#332561"></path><path d="M236.4 195.7L182.3 199.7L250.4 262.5Z" fill="#4f298b" stroke="#4f298b"></path><path d="M182.3 199.7L145.3 206.5L177.3 335.4Z" fill="#402876" stroke="#402876"></path><path d="M89.1 905.2L193.3 811.3L118.1 785.3Z" fill="#45287d" stroke="#45287d"></path><path d="M423.7 199.7L329.6 253.5L436.7 313.4Z" fill="#2c2353" stroke="#2c2353"></path><path d="M130.3 37.8L145.3 206.5L182.3 199.7Z" fill="#2c2353" stroke="#2c2353"></path><path d="M540 356.2L495.9 260.4L446.9 335.2Z" fill="#2c2353" stroke="#2c2353"></path><path d="M0 794.3L89.1 905.2L118.1 785.3Z" fill="#2f245a" stroke="#2f245a"></path><path d="M145.3 206.5L77.1 204.5L177.3 335.4Z" fill="#2f245a" stroke="#2f245a"></path><path d="M130.3 37.8L107.1 197.7L145.3 206.5Z" fill="#372668" stroke="#372668"></path><path d="M219.4 40.8L182.3 199.7L236.4 195.7Z" fill="#2f245a" stroke="#2f245a"></path><path d="M107.1 197.7L77.1 204.5L145.3 206.5Z" fill="#262045" stroke="#262045"></path><path d="M495.9 260.4L423.7 199.7L436.7 313.4Z" fill="#2c2353" stroke="#2c2353"></path><path d="M495.9 260.4L426.9 194.7L423.7 199.7Z" fill="#3b276f" stroke="#3b276f"></path><path d="M423.7 199.7L424.9 168.5L344.7 185.5Z" fill="#4a2984" stroke="#4a2984"></path><path d="M134.3 960L240.4 960L202.3 924.2Z" fill="#402876" stroke="#402876"></path><path d="M202.3 924.2L240.4 960L279.6 905.2Z" fill="#372668" stroke="#372668"></path><path d="M279.6 905.2L324.6 960L369.7 845.3Z" fill="#2c2353" stroke="#2c2353"></path><path d="M431.9 844.2L540 933.2L462.9 824.3Z" fill="#29214c" stroke="#29214c"></path><path d="M462.9 824.3L540 933.2L540 770.3Z" fill="#332561" stroke="#332561"></path><path d="M240.4 960L324.6 960L279.6 905.2Z" fill="#29214c" stroke="#29214c"></path><path d="M540 356.2L540 264.4L495.9 260.4Z" fill="#2f245a" stroke="#2f245a"></path><path d="M495.9 260.4L540 183.7L426.9 194.7Z" fill="#332561" stroke="#332561"></path><path d="M89.1 905.2L134.3 960L202.3 924.2Z" fill="#372668" stroke="#372668"></path><path d="M540 264.4L540 248.5L495.9 260.4Z" fill="#4a2984" stroke="#4a2984"></path><path d="M540 183.7L424.9 168.5L426.9 194.7Z" fill="#4f298b" stroke="#4f298b"></path><path d="M426.9 194.7L424.9 168.5L423.7 199.7Z" fill="#3b276f" stroke="#3b276f"></path><path d="M344.7 185.5L314.6 105.8L236.4 195.7Z" fill="#3b276f" stroke="#3b276f"></path><path d="M0 160.7L77.1 204.5L39.1 81.8Z" fill="#2f245a" stroke="#2f245a"></path><path d="M0 160.7L0 206.5L77.1 204.5Z" fill="#402876" stroke="#402876"></path><path d="M77.1 204.5L0 206.5L25.1 330.4Z" fill="#2f245a" stroke="#2f245a"></path><path d="M324.6 960L415.7 960L369.7 845.3Z" fill="#3b276f" stroke="#3b276f"></path><path d="M0 935.2L74.1 960L89.1 905.2Z" fill="#2f245a" stroke="#2f245a"></path><path d="M89.1 905.2L74.1 960L134.3 960Z" fill="#262045" stroke="#262045"></path><path d="M415.7 960L435.9 960L431.9 844.2Z" fill="#45287d" stroke="#45287d"></path><path d="M377.7 100.8L356.6 114.7L424.9 168.5Z" fill="#372668" stroke="#372668"></path><path d="M424.9 168.5L356.6 114.7L344.7 185.5Z" fill="#372668" stroke="#372668"></path><path d="M0 794.3L0 935.2L89.1 905.2Z" fill="#262045" stroke="#262045"></path><path d="M356.6 114.7L314.6 105.8L344.7 185.5Z" fill="#372668" stroke="#372668"></path><path d="M39.1 81.8L77.1 204.5L107.1 197.7Z" fill="#332561" stroke="#332561"></path><path d="M540 248.5L540 183.7L495.9 260.4Z" fill="#45287d" stroke="#45287d"></path><path d="M427.9 88.8L377.7 100.8L424.9 168.5Z" fill="#45287d" stroke="#45287d"></path><path d="M356.6 114.7L377.7 100.8L314.6 105.8Z" fill="#262045" stroke="#262045"></path><path d="M435.9 960L540 933.2L431.9 844.2Z" fill="#332561" stroke="#332561"></path><path d="M0 935.2L0 960L74.1 960Z" fill="#372668" stroke="#372668"></path><path d="M435.9 960L540 960L540 933.2Z" fill="#45287d" stroke="#45287d"></path><path d="M540 183.7L427.9 88.8L424.9 168.5Z" fill="#45287d" stroke="#45287d"></path><path d="M271.4 0L219.4 40.8L314.6 105.8Z" fill="#45287d" stroke="#45287d"></path><path d="M271.4 0L314.6 105.8L349.6 0Z" fill="#332561" stroke="#332561"></path><path d="M314.6 105.8L219.4 40.8L236.4 195.7Z" fill="#2c2353" stroke="#2c2353"></path><path d="M130.3 37.8L39.1 81.8L107.1 197.7Z" fill="#372668" stroke="#372668"></path><path d="M219.4 40.8L130.3 37.8L182.3 199.7Z" fill="#2f245a" stroke="#2f245a"></path><path d="M0 0L0 85.8L39.1 81.8Z" fill="#45287d" stroke="#45287d"></path><path d="M39.1 81.8L0 85.8L0 160.7Z" fill="#262045" stroke="#262045"></path><path d="M219.4 40.8L181.3 0L130.3 37.8Z" fill="#3b276f" stroke="#3b276f"></path><path d="M349.6 0L314.6 105.8L377.7 100.8Z" fill="#332561" stroke="#332561"></path><path d="M271.4 0L181.3 0L219.4 40.8Z" fill="#332561" stroke="#332561"></path><path d="M130.3 37.8L43.1 0L39.1 81.8Z" fill="#4a2984" stroke="#4a2984"></path><path d="M540 183.7L540 73.8L427.9 88.8Z" fill="#2c2353" stroke="#2c2353"></path><path d="M357.7 0L349.6 0L377.7 100.8Z" fill="#2c2353" stroke="#2c2353"></path><path d="M357.7 0L377.7 100.8L427.9 88.8Z" fill="#2f245a" stroke="#2f245a"></path><path d="M508.9 0L357.7 0L427.9 88.8Z" fill="#372668" stroke="#372668"></path><path d="M181.3 0L43.1 0L130.3 37.8Z" fill="#29214c" stroke="#29214c"></path><path d="M43.1 0L0 0L39.1 81.8Z" fill="#4f298b" stroke="#4f298b"></path><path d="M540 73.8L508.9 0L427.9 88.8Z" fill="#29214c" stroke="#29214c"></path><path d="M540 73.8L540 0L508.9 0Z" fill="#45287d" stroke="#45287d"></path></g></svg>